<?xml version="1.0" encoding="UTF-8"?>
<svg version="1.1" xmlns="http://www.w3.org/2000/svg" width="815" height="820">
<path d="M0 0 C4.25326377 1.50115192 6.08935539 4.58495056 8.375 8.25 C8.7663916 8.87044189 9.1577832 9.49088379 9.56103516 10.13012695 C20.11841804 27.32326938 26.23825634 47.97606753 21.8737793 68.08203125 C16.2964765 90.92631406 -0.35777793 109.78337522 -15.375 127.3125 C-30.91041615 145.51377338 -45.63905009 164.58482366 -49 189 C-47.94167969 188.56429687 -46.88335937 188.12859375 -45.79296875 187.6796875 C-32.97162879 182.58714629 -20.01654386 179.55472329 -6.53564453 176.74267578 C-0.63729548 175.5037048 5.24535093 174.19951088 11.125 172.875 C12.18468994 172.64546631 13.24437988 172.41593262 14.33618164 172.17944336 C27.51726268 169.20606864 37.30566532 164.42432942 45 153 C48.07534182 147.27350143 49.02259195 141.35890179 50 135 C55.00084239 139.20238856 55.72261394 146.3648324 56.375 152.5625 C55.07982683 164.43492072 49.78444445 173.25919634 40.72265625 180.9140625 C33.681199 186.3088088 26.15718424 191.03178405 18.640625 195.73046875 C2.39929709 205.93132054 -9.48441207 216.343565 -16 235 C-15.67 235.33 -15.34 235.66 -15 236 C-14.44054687 235.46632813 -13.88109375 234.93265625 -13.3046875 234.3828125 C10.80453681 211.97906386 40.10828291 197.83276681 73.390625 198.64453125 C94.3889552 199.55053397 115.39520361 202.80161499 136.1953125 205.69238281 C161.01344004 209.12993347 186.73454433 211.61962357 207.91796875 195.82421875 C210.41087335 193.64824156 212.71913061 191.39650787 215 189 C216.16789063 187.79150391 216.16789063 187.79150391 217.359375 186.55859375 C221.96512275 181.62055211 225.95087301 176.45817718 229.6875 170.8359375 C230.3371875 169.92714844 230.3371875 169.92714844 231 169 C231.33 169 231.66 169 232 169 C231.5650914 187.30569827 224.22024136 206.37366392 212 220 C211.32195313 220.75925781 210.64390625 221.51851562 209.9453125 222.30078125 C187.84499785 245.69880121 151.47342905 245.75264379 121.34545898 248.56860352 C102.73788629 250.33874129 86.40861535 253.94661371 69.65625 262.66796875 C67.14485246 263.92736075 64.62294671 264.99738812 62 266 C62 266.66 62 267.32 62 268 C62.55324951 268.09651855 63.10649902 268.19303711 63.67651367 268.29248047 C69.45959171 269.42127455 74.17180793 271.28473115 79.3125 274.125 C79.98216797 274.47820312 80.65183594 274.83140625 81.34179688 275.1953125 C87.83977513 278.70312457 93.89721145 282.85424192 100 287 C103.03108478 289.05101865 106.06309942 291.10060574 109.09765625 293.14648438 C111.12669316 294.51444797 113.1527126 295.88689724 115.17578125 297.26367188 C127.45855612 305.51839573 136.92037542 310.41224372 152 309 C157.47260763 307.43281568 162.25721972 305.39422422 166.71484375 301.828125 C169 300 169 300 171 300 C170.13179365 307.46657457 166.48813247 312.91161654 160.88671875 317.87109375 C151.0778946 324.85748537 140.58269366 326.14585184 128.81811523 324.57519531 C125.57339728 324.00120826 122.35053312 323.36077345 119.125 322.6875 C117.97878174 322.4603833 116.83256348 322.2332666 115.65161133 321.99926758 C111.06039144 321.08180636 106.47979613 320.15352245 101.94140625 319 C84.53771032 314.65429922 67.96455894 315.79435778 52 324 C55.1244266 324.7442166 58.18408467 325.12536155 61.37890625 325.359375 C94.40640687 327.78385366 123.24803353 339.1758284 146 364 C148.7606482 367.26207205 151.3741054 370.62917076 154 374 C154.87794266 375.09036983 155.75829298 376.17880401 156.640625 377.265625 C162.438339 384.41791738 168.05658796 391.68296135 173.5625 399.0625 C199.07031426 434.85682403 199.07031426 434.85682403 237.3515625 453.49609375 C250.49479099 455.31137905 263.04961698 453.20879629 276 451 C261.5906762 465.86039828 240.58383706 473.70238378 220.08203125 474.0703125 C189.17527954 473.44087012 165.29761663 450.04238339 142.91748047 431.25146484 C134.31177323 424.04532268 125.83324272 417.48619001 116 412 C115.18660156 411.53207031 114.37320313 411.06414062 113.53515625 410.58203125 C106.006152 406.51060632 95.65098312 402 87 402 C87.44730469 402.86238281 87.89460937 403.72476562 88.35546875 404.61328125 C96.93658346 421.68495739 99.85691486 439.74964864 102.76977539 458.46386719 C104.91046357 471.96748097 107.14502506 483.70061989 118 493 C124.67864322 497.54716134 132.17928149 499.34716774 140 501 C136.6372955 505.10997216 132.43982778 505.84036025 127.3359375 506.40625 C115.76660496 506.68008036 107.50582967 504.35691875 98.625 496.4375 C90.17819705 487.37749901 83.87184027 476.11524788 77.265625 465.6875 C67.39601106 450.24293488 55.45898785 438.28803921 37 434 C37.53367187 434.49886719 38.06734375 434.99773437 38.6171875 435.51171875 C58.6170018 454.7848962 75.61227611 483.03589247 76.23828125 511.48046875 C76.60486621 533.47223386 74.15273386 554.98541905 70.84375 576.69921875 C68.80693596 590.25032185 67.60642181 603.49710831 67.5625 617.1875 C67.55337585 618.26186813 67.55337585 618.26186813 67.54406738 619.35794067 C67.4341856 638.96645837 73.31822191 653.14643106 87.125 667.15625 C93.22744722 672.80998787 100.09873627 677.39204648 107 682 C102.64646864 683.3225231 99.02790049 682.43534042 94.6875 681.4375 C93.89077881 681.25550049 93.09405762 681.07350098 92.27319336 680.88598633 C70.66532593 675.69639898 53.01584998 664.6715853 40.97265625 645.78515625 C36.26885515 637.3178482 34.14318913 628.16202574 32.5625 618.6875 C32.35568604 617.48125977 32.14887207 616.27501953 31.93579102 615.03222656 C29.59718652 600.90228585 28.23505518 586.63335105 26.87524414 572.3815918 C25.31848655 556.51625869 22.8927588 541.53292517 16 527 C15.32710937 525.55367187 15.32710937 525.55367187 14.640625 524.078125 C12.68560009 519.25133337 12.68560009 519.25133337 9 516 C8.91105469 516.67933594 8.82210938 517.35867188 8.73046875 518.05859375 C7.81680901 521.7376621 6.17421302 524.79561259 4.3125 528.0625 C3.92167236 528.752229 3.53084473 529.44195801 3.12817383 530.15258789 C-3.2538661 541.14570964 -10.90204842 551.34931471 -18.35546875 561.62890625 C-31.33076581 579.54742275 -31.33076581 579.54742275 -34 601 C-32.22041755 608.99286744 -28.92364497 615.50078864 -24 622 C-31.41597703 621.61969349 -37.3755858 617.02437416 -42.3125 611.75 C-50.07752207 601.69224161 -50.45520436 590.22589403 -49 578 C-47.74340014 570.93986946 -46.15927261 563.95577872 -44.58105469 556.96191406 C-40.11232403 537.07032182 -39.66477654 520.67044692 -49 502 C-49.06469482 502.74870361 -49.12938965 503.49740723 -49.19604492 504.26879883 C-52.53199372 541.66292363 -61.66946729 573.74386831 -91.33203125 598.984375 C-93.86630971 601.01852222 -96.43276219 603.00762351 -99 605 C-100.13604107 605.91166706 -101.27002911 606.82589623 -102.40234375 607.7421875 C-110.83119205 614.55896099 -119.42695274 621.11600075 -128.1171875 627.59472656 C-162.37643627 652.69932284 -162.37643627 652.69932284 -178.53515625 690.6328125 C-179.42794612 700.29957181 -178.40477822 709.4552055 -177 719 C-176.8092651 720.33324325 -176.61912534 721.66657183 -176.4296875 723 C-176.28789062 723.99 -176.14609375 724.98 -176 726 C-176.66 726 -177.32 726 -178 726 C-184.92494242 717.10717826 -190.21272918 707.61619352 -194 697 C-194.4125 695.85402344 -194.825 694.70804688 -195.25 693.52734375 C-201.06063838 674.98575809 -199.15831779 655.84156643 -190.21484375 638.7109375 C-186.5621679 632.3455751 -181.96252562 626.61855243 -177.44287109 620.85595703 C-176.14027201 619.18043111 -174.86858524 617.48843945 -173.61328125 615.77734375 C-169.83367326 610.62703412 -165.9133224 605.65683679 -161.75 600.8125 C-145.62322864 581.99411958 -132.48972896 563.19416499 -126 539 C-126.63421875 539.30292969 -127.2684375 539.60585938 -127.921875 539.91796875 C-140.27190737 545.46183687 -153.24355253 548.2521613 -166.546875 550.47265625 C-167.3051207 550.59950302 -168.06336639 550.72634979 -168.84458923 550.85704041 C-172.64328578 551.48774674 -176.4438998 552.09863699 -180.25024414 552.68139648 C-194.36203172 554.90185696 -208.44062669 557.42909833 -218 569 C-222.03366383 574.91667751 -223.64264535 580.79347402 -224.54296875 587.84765625 C-224.69378906 588.55792969 -224.84460938 589.26820313 -225 590 C-225.66 590.33 -226.32 590.66 -227 591 C-231.29274031 581.43715441 -233.01621758 571.96674799 -229.5625 561.8125 C-222.82551561 547.22751975 -207.81706519 538.78864198 -194.68945312 530.78686523 C-188.39652754 526.92902336 -182.48561865 522.96417201 -177 518 C-176.23945313 517.36578125 -175.47890625 516.7315625 -174.6953125 516.078125 C-167.58823132 509.71286037 -163.51304346 501.75867783 -160 493 C-160 491.68 -160 490.36 -160 489 C-160.42667969 489.46148438 -160.85335938 489.92296875 -161.29296875 490.3984375 C-181.31891424 511.29148579 -210.72951599 526.66701452 -239.96142578 527.29199219 C-263.89655574 527.47205227 -287.82242006 523.75393771 -311.46337891 520.30761719 C-334.47072662 516.97837091 -361.10093133 514.07564738 -381.00463867 528.41552734 C-391.48897723 536.34000201 -399.03979813 545.96229568 -406 557 C-406.66 556.67 -407.32 556.34 -408 556 C-404.48682057 532.82534271 -396.03125187 510.3591841 -376.6484375 495.77734375 C-353.85083938 480.47807068 -323.09266458 479.99201991 -296.51147461 477.48242188 C-278.70581416 475.76391465 -261.92875396 472.60152714 -246 464 C-248.56790149 462.28806567 -251.13254978 460.91614699 -253.88574219 459.53955078 C-266.17916485 453.30560787 -276.06829831 444.86255812 -286.15234375 435.55078125 C-302.53477965 420.7491863 -302.53477965 420.7491863 -323.53125 416.578125 C-331.90548141 417.5966126 -338.47121936 420.77697549 -345 426 C-345.66 425.67 -346.32 425.34 -347 425 C-342.95157909 415.47430373 -338.66535815 407.97364521 -328.91796875 403.625 C-317.3166344 399.66155481 -306.99593983 400.86676434 -295.1875 403.3125 C-293.46031738 403.65317505 -293.46031738 403.65317505 -291.69824219 404.00073242 C-287.10100494 404.91530303 -282.51342446 405.83351954 -277.97265625 407 C-260.34247141 411.44494357 -243.16902865 410.29851618 -227 402 C-227.69859131 401.93006836 -228.39718262 401.86013672 -229.11694336 401.78808594 C-259.35872014 398.69859178 -286.31660727 393.30615802 -310 373 C-310.61101562 372.52175781 -311.22203125 372.04351562 -311.8515625 371.55078125 C-316.86011147 367.55995114 -320.6520933 362.71502298 -324.61914062 357.71777344 C-326.14696442 355.81717793 -327.70317636 353.94254142 -329.265625 352.0703125 C-336.61690143 343.25554953 -343.64813417 334.26977571 -350.48046875 325.04882812 C-358.52233948 314.20574021 -366.62231059 303.72812623 -376 294 C-376.83144531 293.10539062 -377.66289062 292.21078125 -378.51953125 291.2890625 C-390.98707879 278.21286303 -405.14983206 272.25337678 -423.1875 271.75 C-432.58137237 271.79062215 -441.75826464 273.43801656 -451 275 C-451 274.34 -451 273.68 -451 273 C-433.74885793 259.44199035 -412.59239085 250.71360755 -390.38671875 252.25 C-362.34170642 255.68283211 -340.97786581 276.01442327 -320.08984375 293.42578125 C-302.94460576 307.64193587 -286.5944863 318.02705698 -265 324 C-265.38671875 323.12601562 -265.7734375 322.25203125 -266.171875 321.3515625 C-271.53962656 308.85274003 -274.22159692 296.43811716 -276.21484375 283.0078125 C-276.32119644 282.29267487 -276.42754913 281.57753723 -276.53712463 280.84072876 C-277.06812215 277.24657263 -277.5836772 273.65113901 -278.07446289 270.05126953 C-280.62357655 250.02807667 -280.62357655 250.02807667 -292.140625 234.29296875 C-299.27907047 229.30334105 -306.50462529 226.6374305 -315 225 C-312.44199568 221.87355027 -309.86898204 220.99038535 -306 220 C-295.6065372 219.00684689 -287.036083 219.73712832 -278.3671875 225.859375 C-269.60110438 233.10200778 -263.96908966 242.45783422 -258 252 C-247.39785891 268.81718932 -236.77187335 284.63278655 -217 291 C-216.01 291 -215.02 291 -214 291 C-214.60585938 290.36835938 -215.21171875 289.73671875 -215.8359375 289.0859375 C-233.33080523 270.4068018 -246.22087715 248.46546883 -250.8125 223.0625 C-250.93681396 222.39597412 -251.06112793 221.72944824 -251.18920898 221.04272461 C-253.37683905 207.33325285 -251.74489259 193.48141194 -250.09091187 179.81704712 C-249.74145609 176.92939935 -249.40444493 174.04049672 -249.06958008 171.15112305 C-248.04653109 162.38860438 -246.97236148 153.63531254 -245.77734375 144.89453125 C-240.05308927 106.31082074 -240.05308927 106.31082074 -252.5625 70.5625 C-259.75027003 61.17736381 -267.4529784 53.81619387 -277.58056641 47.81591797 C-279.08129222 46.92203844 -280.54496926 45.96648028 -282 45 C-282 44.34 -282 43.68 -282 43 C-263.1694687 43.88614265 -243.85072149 51.08414071 -230 64 C-229.22269531 64.68707031 -228.44539062 65.37414062 -227.64453125 66.08203125 C-214.92420463 77.90746052 -210.25452024 93.17231777 -207.5625 109.875 C-207.25227905 111.7458728 -207.25227905 111.7458728 -206.93579102 113.65454102 C-205.6019554 121.96273994 -204.59652771 130.29304385 -203.7109375 138.66015625 C-203.60387985 139.6713855 -203.4968222 140.68261475 -203.38652039 141.7244873 C-202.85907405 146.76268223 -202.35337844 151.80210525 -201.87524414 156.84521484 C-200.0098157 175.90532669 -195.50804396 192.22273147 -186 209 C-185.41734375 207.82566406 -184.8346875 206.65132812 -184.234375 205.44140625 C-177.18114998 191.48828718 -168.71682193 179.20880364 -159.29003906 166.78125 C-158.78182617 166.1109375 -158.27361328 165.440625 -157.75 164.75 C-157.25209961 164.09386719 -156.75419922 163.43773437 -156.24121094 162.76171875 C-143.90955775 146.36525771 -143.90955775 146.36525771 -141.3984375 126.62109375 C-142.66793829 119.69858063 -144.38792 114.37342746 -148.6953125 108.76953125 C-150 107 -150 107 -151 104 C-142.26803344 106.30426895 -135.02077139 110.29288906 -130.03125 118.046875 C-121.06302568 135.03214834 -127.67448902 154.88543034 -131.53125 172.41455078 C-135.17183468 189.12710983 -135.66465911 204.02563343 -128.38671875 219.8203125 C-127.93901123 220.79500488 -127.49130371 221.76969727 -127.0300293 222.77392578 C-126.69011963 223.50853027 -126.35020996 224.24313477 -126 225 C-125.96559814 224.32235596 -125.93119629 223.64471191 -125.89575195 222.9465332 C-124.71359308 201.20763954 -121.75531865 181.59773837 -112 162 C-111.2575 160.47632813 -111.2575 160.47632813 -110.5 158.921875 C-101.90605315 142.20104363 -87.55653219 129.57042251 -72.78710938 118.37255859 C-70.38912756 116.53082993 -68.04295941 114.62862164 -65.69433594 112.72460938 C-59.20509625 107.46494651 -52.58013436 102.41861845 -45.875 97.4375 C-14.1382873 73.90102032 -14.1382873 73.90102032 2.5859375 39.23046875 C4.28253731 25.99378911 3.03245846 12.92404915 0 0 Z M-135 261 C-135.63421875 261.29922363 -136.2684375 261.59844727 -136.921875 261.90673828 C-145.92316193 266.24310826 -153.51022695 271.32583107 -161 278 C-161.84046875 278.69738281 -162.6809375 279.39476562 -163.546875 280.11328125 C-184.40854452 297.83274278 -197.628452 325.88186415 -200 353 C-202.0504605 386.26025226 -191.39749262 414.96025268 -169.6875 440.125 C-151.47289397 459.78670772 -125.1719507 473.50306105 -98.1418457 475.17700195 C-66.13154163 475.83833921 -37.1957038 469.23002624 -13 447 C-12.5157959 446.55817383 -12.0315918 446.11634766 -11.53271484 445.66113281 C11.18771639 424.69852627 23.69609455 396.37232232 25.11572266 365.48193359 C25.52012267 334.56042208 13.40656501 306.18753389 -7.67211914 283.92944336 C-20.74548155 270.54476409 -36.62882749 261.62707754 -54.25 255.625 C-54.94569092 255.38628174 -55.64138184 255.14756348 -56.3581543 254.90161133 C-81.98135649 246.645213 -110.8750229 249.60120607 -135 261 Z " fill="#BF9435" transform="translate(499,57)"/>
<path d="M0 0 C0.66 0 1.32 0 2 0 C2.48073975 0.85658203 2.48073975 0.85658203 2.97119141 1.73046875 C9.75962857 13.81374282 16.62688908 25.84560648 23.62768555 37.80712891 C29.83596803 48.41646789 35.97328774 59.06628503 42.10888672 69.71777344 C44.61438116 74.06632331 47.12235434 78.41344016 49.63085938 82.76025391 C50.86847716 84.9053934 52.10546524 87.05089633 53.34179688 89.19677734 C56.28327411 94.30087709 59.2306462 99.40132435 62.19747925 104.49072266 C63.60697037 106.90938314 65.01332765 109.32985862 66.41943359 111.75048828 C67.41978682 113.46956052 68.42469734 115.1859782 69.4296875 116.90234375 C70.02910156 117.93488281 70.62851562 118.96742188 71.24609375 120.03125 C71.77904053 120.94455078 72.3119873 121.85785156 72.86108398 122.79882812 C74 125 74 125 74 127 C67.39823957 127.12687837 60.796794 127.21438377 54.1940918 127.2746582 C51.94852956 127.29978723 49.703049 127.33389615 47.45776367 127.37719727 C44.22814782 127.43791776 40.99961416 127.46622631 37.76953125 127.48828125 C36.76727005 127.51408768 35.76500885 127.5398941 34.7323761 127.56648254 C27.74655125 127.56928739 27.74655125 127.56928739 23.96679688 124.68701172 C20.80206002 120.36339034 20.80206002 120.36339034 19.76171875 118.51953125 C19.41689453 117.91302734 19.07207031 117.30652344 18.71679688 116.68164062 C18.37712891 116.06482422 18.03746094 115.44800781 17.6875 114.8125 C17.32849609 114.18408203 16.96949219 113.55566406 16.59960938 112.90820312 C14 108.27842262 14 108.27842262 14 106 C25.385 105.505 25.385 105.505 37 105 C28.87033803 90.3715505 20.62037811 75.83248304 12.15625 61.39453125 C8.3842672 54.95977282 4.67842063 48.4886426 1 42 C-1.39989119 45.05547563 -3.35084542 48.22283184 -5.265625 51.6015625 C-5.90153564 52.71974365 -6.53744629 53.8379248 -7.19262695 54.98999023 C-7.52799469 55.58254608 -7.86336243 56.17510193 -8.20889282 56.78561401 C-9.98669784 59.92656791 -11.77345683 63.06242816 -13.55859375 66.19921875 C-13.92450119 66.84280838 -14.29040863 67.48639801 -14.66740417 68.14949036 C-18.52259601 74.92747397 -22.41414684 81.68427279 -26.3125 88.4375 C-26.93995117 89.52562988 -27.56740234 90.61375977 -28.21386719 91.73486328 C-30.77834311 96.17717917 -33.36074124 100.6012354 -36 105 C-25.11 105.495 -25.11 105.495 -14 106 C-14.95596772 110.77983861 -16.51363425 114.08194332 -18.9375 118.1875 C-19.29779297 118.81591797 -19.65808594 119.44433594 -20.02929688 120.09179688 C-21.52087276 122.66016418 -22.89113712 124.89113712 -25 127 C-26.89073181 127.26069641 -26.89073181 127.26069641 -29.21850586 127.2746582 C-30.08958481 127.28419022 -30.96066376 127.29372223 -31.85813904 127.30354309 C-32.80085159 127.30263168 -33.74356415 127.30172028 -34.71484375 127.30078125 C-35.68152481 127.30506638 -36.64820587 127.3093515 -37.6441803 127.31376648 C-39.69108293 127.31951612 -41.73800599 127.3200054 -43.78491211 127.31567383 C-46.92141513 127.31251619 -50.05697324 127.33595722 -53.19335938 127.36132812 C-55.17968631 127.36360123 -57.16601578 127.36430456 -59.15234375 127.36328125 C-60.09303207 127.372491 -61.0337204 127.38170074 -62.00291443 127.39118958 C-62.87714554 127.38496078 -63.75137665 127.37873199 -64.65209961 127.37231445 C-65.80554115 127.37325859 -65.80554115 127.37325859 -66.98228455 127.3742218 C-69.49758714 126.90771347 -70.39092008 125.93459402 -72 124 C-64.0055857 109.60491316 -55.8882509 95.29619789 -47.5625 81.08984375 C-43.86786636 74.7842949 -40.21158203 68.45699366 -36.5625 62.125 C-35.63087036 60.50911987 -35.63087036 60.50911987 -34.68041992 58.8605957 C-31.50948845 53.3591465 -28.34176333 47.85586119 -25.17578125 42.3515625 C-19.03782038 31.68651186 -12.87566681 21.03698682 -6.625 10.4375 C-6.07118652 9.49680664 -5.51737305 8.55611328 -4.94677734 7.58691406 C-4.44098145 6.73194336 -3.93518555 5.87697266 -3.4140625 4.99609375 C-2.9701416 4.24513428 -2.5262207 3.4941748 -2.06884766 2.72045898 C-1 1 -1 1 0 0 Z " fill="#BF9435" transform="translate(409,341)"/>
<path d="M0 0 C4.82951148 3.89667185 8.24138806 7.98462998 9.41796875 14.1796875 C10.072119 21.85884255 8.38514663 27.94407404 3.41015625 33.9140625 C-2.26956903 38.71027496 -7.35077567 41.02663717 -14.8828125 40.66796875 C-21.8598063 39.61871542 -26.9732165 36.67005887 -31.25 31.06640625 C-34.78607475 25.61246044 -35.2946682 19.61898909 -34.40234375 13.2890625 C-32.44530033 7.26940663 -29.69304908 2.51213541 -24.2109375 -0.8125 C-16.39653443 -4.69438489 -7.43791579 -4.88827563 0 0 Z " fill="#BF9435" transform="translate(600.40234375,161.7109375)"/>
<path d="M0 0 C5.47354396 4.1174415 8.40834341 9.38413612 9.5625 16.11328125 C9.89527711 22.80002134 8.20324228 29.0052229 3.76953125 34.12890625 C-1.59754259 38.94920045 -7.49498224 41.14197868 -14.61328125 40.83984375 C-21.17281442 40.03547958 -25.91223979 37.51658719 -30.39453125 32.64453125 C-34.41806668 26.98610279 -35.576542 20.44316688 -34.44140625 13.65625 C-32.6374563 6.9878557 -28.57267645 2.36095097 -22.875 -1.4375 C-15.40086483 -4.74336748 -7.02264273 -4.13165481 0 0 Z " fill="#BF9435" transform="translate(714.875,361.4375)"/>
<path d="M0 0 C4.70366381 3.27542581 7.86190235 7.39820704 9.6875 12.875 C10.35816628 20.2963072 10.32577857 26.7813085 5.6875 32.875 C0.68403345 38.30248913 -4.25126972 40.86916822 -11.6875 41.1875 C-17.39745237 41.00547132 -21.99195632 39.98541571 -26.296875 36.0703125 C-32.15704402 29.65318527 -33.79539185 24.55149768 -33.625 15.8828125 C-33.0067425 9.93208402 -30.69919462 6.32619204 -26.625 2.0625 C-18.22187078 -3.48673628 -9.08534034 -5.15746763 0 0 Z " fill="#BF9435" transform="translate(231.3125,637.125)"/>
<path d="M0 0 C5.7109525 5.44588719 8.87833049 10.2678552 9.4375 18.25 C9.27962733 24.48070817 6.61300393 30.00170058 2.54296875 34.671875 C-2.71745568 39.39098926 -8.48126777 40.55321864 -15.34375 40.3671875 C-21.12400173 39.5681527 -25.82588924 37.20057053 -29.92578125 33.05078125 C-34.12407601 27.46975456 -35.43144425 21.93392545 -35 15 C-33.86641714 8.8936244 -30.53753025 4.15206045 -26 0 C-17.83455212 -4.99925381 -8.11843223 -5.47111737 0 0 Z " fill="#BF9435" transform="translate(118,438)"/>
<path d="M0 0 C4.58145041 2.90469037 8.12684957 7.29323353 10.11328125 12.33984375 C10.97668618 19.71968379 11.24509635 26.63006102 6.59765625 32.7265625 C1.35922573 38.41990935 -3.38649274 40.8303842 -11.19921875 41.71484375 C-17.90320832 41.0330821 -23.81675612 39.01980801 -28.38671875 33.90234375 C-33.37057386 27.65803691 -33.68876398 21.05952908 -32.88671875 13.33984375 C-31.18917204 7.45630116 -27.97288191 3.7632228 -22.88671875 0.33984375 C-15.03678229 -3.69912771 -7.91499235 -3.84130026 0 0 Z " fill="#BF9435" transform="translate(176.88671875,214.66015625)"/>
<path d="M0 0 C5.09620539 3.01237564 8.70841667 7.93775001 10.5625 13.5 C11.16522587 22.18157077 11.08890385 28.26831538 5.375 35.125 C-0.64379451 40.20753758 -5.80364959 42.2201236 -13.76171875 41.87890625 C-20.60746991 40.90950791 -24.87540611 37.59849851 -29.2109375 32.37890625 C-32.91296013 26.7079735 -33.28469256 21.09221707 -32.4375 14.5 C-30.18022262 7.37546829 -26.87333309 3.19464492 -20.4375 -0.5 C-14.1537238 -2.59459207 -6.12809057 -2.6958848 0 0 Z " fill="#BF9435" transform="translate(652.4375,582.5)"/>
<path d="M0 0 C5.52013044 3.08039076 8.60528998 6.87836995 10.625 12.9375 C11.25606462 20.49993008 11.64723759 27.81621319 6.625 33.9375 C-0.0649654 40.07557691 -5.20758247 41.24223835 -14.20703125 41.15234375 C-19.392995 40.80064461 -22.10040858 38.99965952 -26 35.75 C-31.08253758 29.73120549 -33.0951236 24.57135041 -32.75390625 16.61328125 C-31.78450791 9.76753009 -28.47349851 5.49959389 -23.25390625 1.1640625 C-16.04505584 -3.54192301 -7.71848698 -3.50735432 0 0 Z " fill="#BF9435" transform="translate(376.375,100.0625)"/>
</svg>
